<svg xmlns="http://www.w3.org/2000/svg" xmlns:xlink="http://www.w3.org/1999/xlink" version="1.1" x="0px" y="0px" viewBox="0 0 1024 1024" style="enable-background:new 0 0 1024 1024;" xml:space="preserve">
    <g>
        <g>
            <g>
                <path d="M729.7,356.5c0.4,7.3-0.2,14.8-0.9,22.1c-0.2,1.7-0.4,3.4-0.6,5.1c-0.2,1.8,0.3-1.8-0.1,0.9     c-0.2,1.1-0.3,2.2-0.5,3.3c-0.7,4.3-1.5,8.6-2.4,12.9c-2.2,10.3-5.1,20.4-8.6,30.3c-19.4,54.2-59.5,97.2-108.1,127.5     c-48,29.9-101.7,48.1-155.9,63.3c-43.5,12.2-89.7,20.6-125.1,50.7c-25.6,21.8-45.5,54-52.1,87.3c-0.1,0.6-0.2,1.2-0.3,1.7     c-0.9,5.3,1.4,10.8,7,12.3c4.8,1.3,11.4-1.6,12.3-7c1.3-8.3,4.2-16.6,7.3-24.4c0.2-0.5,1.1-2.8,0.7-1.8c-0.4,1.1,0.6-1.5,0.8-1.9     c1-2.2,2-4.3,3-6.4c2.1-4.2,4.4-8.3,6.8-12.4c5.8-9.5,11.6-16.9,19.5-24.9c16.1-16.3,36-27.5,57.6-34.7     c20.1-6.7,40.7-11.8,61.1-17.4c54.3-15,108.5-32.7,157.4-61.2c52.3-30.4,96.9-73.4,121-129.6c8.3-19.5,14.4-39.8,17.6-60.7     c1.7-11,3.1-22.4,2.6-33.5c0-0.5,0-1-0.1-1.5C748.9,343.7,728.9,343.6,729.7,356.5L729.7,356.5z" />
            </g>
        </g>
        <g>
            <g>
                <path d="M294.4,841.5c0-21.8,0-43.7,0-65.5c0-52.4,0-104.9,0-157.3c0-63.4,0-126.9,0-190.3     c0-54.9,0-109.7,0-164.6c0-26.7,0.7-53.4,0-80.1c0-0.4,0-0.8,0-1.1c0-12.9-20-12.9-20,0c0,21.8,0,43.7,0,65.5     c0,52.4,0,104.9,0,157.3c0,63.4,0,126.9,0,190.3c0,54.9,0,109.7,0,164.6c0,26.7-0.7,53.4,0,80.1c0,0.4,0,0.8,0,1.1     C274.4,854.4,294.4,854.4,294.4,841.5L294.4,841.5z" />
            </g>
        </g>
        <g>
            <g>
                <path d="M804.7,281.5c-0.2,26.6-16.8,51.8-42.2,60.9c-26.2,9.4-55.3,1.6-73.2-19.8c-17.4-20.8-19.2-51.6-5.3-74.7     c13.8-23,41.7-35.7,68.1-30.3C782.5,223.9,804.4,250.5,804.7,281.5c0.1,12.9,20.1,12.9,20,0c-0.3-35.8-22.7-67.5-56.2-80     c-32.9-12.2-72-1.5-94.1,25.7c-22.5,27.6-26.1,67.2-7.6,97.9c18.5,30.8,54.9,46.5,90.1,39.6c39.3-7.7,67.5-43.7,67.9-83.2     C824.8,268.6,804.8,268.6,804.7,281.5z" />
            </g>
        </g>
        <g>
            <g>
                <path d="M349.3,107.5c-0.2,26.6-16.8,51.8-42.2,60.9c-26.2,9.4-55.3,1.6-73.2-19.8c-17.4-20.8-19.2-51.6-5.3-74.7     c13.8-23,41.7-35.7,68.1-30.3C327.2,49.9,349,76.5,349.3,107.5c0.1,12.9,20.1,12.9,20,0c-0.3-35.8-22.7-67.5-56.2-80     c-32.9-12.2-72-1.5-94.1,25.7c-22.5,27.6-26.1,67.2-7.6,97.9c18.5,30.8,54.9,46.5,90.1,39.6c39.3-7.7,67.5-43.7,67.9-83.2     C369.5,94.6,349.5,94.6,349.3,107.5z" />
            </g>
        </g>
        <g>
            <g>
                <path d="M349.7,916.5c-0.2,26.6-16.8,51.8-42.2,60.9c-26.2,9.4-55.3,1.6-73.2-19.8c-17.4-20.8-19.2-51.6-5.3-74.7     c13.8-23,41.7-35.7,68.1-30.3C327.5,858.9,349.4,885.5,349.7,916.5c0.1,12.9,20.1,12.9,20,0c-0.3-35.8-22.7-67.5-56.2-80     c-32.9-12.2-72-1.5-94.1,25.7c-22.5,27.6-26.1,67.2-7.6,97.9c18.5,30.8,54.9,46.5,90.1,39.6c39.3-7.7,67.5-43.7,67.9-83.2     C369.8,903.6,349.8,903.6,349.7,916.5z" />
            </g>
        </g>
    </g>
</svg>