<svg xmlns="http://www.w3.org/2000/svg" xmlns:xlink="http://www.w3.org/1999/xlink" version="1.1" x="0px" y="0px" viewBox="0 0 150 150" style="enable-background:new 0 0 150 150;" xml:space="preserve">
	<style type="text/css">
	.st0{fill:none;}
	.st1{fill:none;stroke:#000000;stroke-width:2;stroke-linecap:round;stroke-linejoin:round;stroke-miterlimit:10;}
</style>
	<g>
		<g>
			<path d="M139,10H50.6103516c-0.5527344,0-1,0.4472656-1,1v18.0898438H11c-0.5527344,0-1,0.4472656-1,1V139    c0,0.5527344,0.4472656,1,1,1h88.3896484c0.5527344,0,1-0.4472656,1-1v-18.0888672H139c0.5527344,0,1-0.4472656,1-1V11    C140,10.4472656,139.5527344,10,139,10z M98.3896484,138H12V31.0898438h37.6103516v88.8212891c0,0.5527344,0.4472656,1,1,1    h47.7792969V138z M138,118.9111328H99.3896484H51.6103516V30.0898438V12H138V118.9111328z" />
		</g>
		<g>
			<path d="M68.6572266,54.0048828c0-0.5527344-0.4482422-1-1-1l-8.3603516,0.0009766c-0.5527344,0-1,0.4482422-1,1    c0,0.5527344,0.4482422,1,1,1l8.3603516-0.0009766C68.2099609,55.0048828,68.6572266,54.5566406,68.6572266,54.0048828z" />
		</g>
		<g>
			<path d="M131.3124695,54.0029297c0-0.5527344-0.4482117-1-1-1l-9.5175476,0.0009766c-0.5527344,0-1,0.4482422-1,1    c0,0.5527344,0.4482422,1,1,1l9.5175476-0.0009766C130.8652344,55.0029297,131.3124695,54.5546875,131.3124695,54.0029297z" />
		</g>
		<g>
			<path d="M59.296875,64.4570313c-0.5527344,0-1,0.4482422-1,1c0,0.5527344,0.4482422,1,1,1l6.5917969-0.0009766    c0.5527344,0,1-0.4482422,1-1c0-0.5527344-0.4482422-1-1-1L59.296875,64.4570313z" />
		</g>
		<g>
			<path d="M130.3134766,64.4541016l-6.4082031,0.0009766c-0.5527344,0-1,0.4482422-1,1c0,0.5527344,0.4482422,1,1,1    l6.4082031-0.0009766c0.5527344,0,1-0.4482422,1-1C131.3134766,64.9013672,130.8652344,64.4541016,130.3134766,64.4541016z" />
		</g>
		<g>
			<path d="M59.296875,77.9082031l9.6083984-0.0009766c0.5527344,0,1-0.4482422,1-1c0-0.5527344-0.4482422-1-1-1    l-9.6083984,0.0009766c-0.5527344,0-1,0.4482422-1,1C58.296875,77.4609375,58.7451172,77.9082031,59.296875,77.9082031z" />
		</g>
		<g>
			<path d="M122.0302734,77.90625l8.2832031-0.0009766c0.5527344,0,1-0.4482422,1-1c0-0.5527344-0.4482422-1-1-1    l-8.2832031,0.0009766c-0.5527344,0-1,0.4482422-1,1C121.0302734,77.4589844,121.4785156,77.90625,122.0302734,77.90625z" />
		</g>
		<g>
			<path d="M130.3144531,87.3564453l-17.0966797,0.0009766c-0.5527344,0-1,0.4482422-1,1c0,0.5527344,0.4482422,1,1,1    l17.0966797-0.0009766c0.5527344,0,1-0.4482422,1-1C131.3144531,87.8037109,130.8662109,87.3564453,130.3144531,87.3564453z" />
		</g>
		<g>
			<path d="M78.2177734,88.3583984c0-0.5527344-0.4482422-1-1-1L59.2978516,87.359375c-0.5527344,0-1,0.4482422-1,1    c0,0.5527344,0.4482422,1,1,1l17.9199219-0.0009766C77.7705078,89.3583984,78.2177734,88.9101563,78.2177734,88.3583984z" />
		</g>
		<g>
			<path d="M59.2978516,98.8105469c-0.5527344,0-1,0.4482422-1,1c0,0.5527344,0.4482422,1,1,1l5.1894531-0.0009766    c0.5527344,0,1-0.4482422,1-1c0-0.5527344-0.4482422-1-1-1L59.2978516,98.8105469z" />
		</g>
		<g>
			<path d="M92.6826172,99.8085938c0-0.5527344-0.4482422-1-1-1l-3.7470703,0.0009766c-0.5527344,0-1,0.4482422-1,1    c0,0.5527344,0.4482422,1,1,1l3.7470703-0.0009766C92.2353516,100.8085938,92.6826172,100.3603516,92.6826172,99.8085938z" />
		</g>
		<g>
			<path d="M98.1210938,98.8085938c-0.5527344,0-1,0.4472656-1,1s0.4472656,1,1,1h7.4960938c0.5527344,0,1-0.4472656,1-1    s-0.4472656-1-1-1H98.1210938z" />
		</g>
		<g>
			<path d="M130.3144531,98.8076172l-19.0273438,0.0009766c-0.5527344,0-1,0.4482422-1,1c0,0.5527344,0.4482422,1,1,1    l19.0273438-0.0009766c0.5527344,0,1-0.4482422,1-1C131.3144531,99.2548828,130.8662109,98.8076172,130.3144531,98.8076172z" />
		</g>
		<g>
			<path d="M69.4882813,100.8095703h12.6845703c0.5527344,0,1-0.4472656,1-1s-0.4472656-1-1-1H69.4882813    c-0.5527344,0-1,0.4472656-1,1S68.9355469,100.8095703,69.4882813,100.8095703z" />
		</g>
		<g>
			<path d="M69.1005859,110.2607422l-9.8027344,0.0009766c-0.5527344,0-1,0.4482422-1,1c0,0.5527344,0.4482422,1,1,1    l9.8027344-0.0009766c0.5527344,0,1-0.4482422,1-1C70.1005859,110.7080078,69.6523438,110.2607422,69.1005859,110.2607422z" />
		</g>
		<g>
			<path d="M84.7646484,110.2607422h-8.3613281c-0.5527344,0-1,0.4472656-1,1s0.4472656,1,1,1h8.3613281c0.5527344,0,1-0.4472656,1-1    S85.3173828,110.2607422,84.7646484,110.2607422z" />
		</g>
		<g>
			<path d="M98.6982422,110.2597656H91.203125c-0.5527344,0-1,0.4472656-1,1s0.4472656,1,1,1h7.4951172c0.5527344,0,1-0.4472656,1-1    S99.2509766,110.2597656,98.6982422,110.2597656z" />
		</g>
		<g>
			<path d="M130.3144531,110.2587891l-25.9462891,0.0009766c-0.5527344,0-1,0.4472656-1,1s0.4472656,1,1,1l25.9462891-0.0009766    c0.5527344,0,1-0.4472656,1-1S130.8662109,110.2587891,130.3144531,110.2587891z" />
		</g>
		<g>
			<path d="M59.2949219,20.6523438l71.0166016-0.0029297c0.5527344,0,1-0.4482422,1-1c0-0.5527344-0.4482422-1-1-1    l-71.0166016,0.0029297c-0.5527344,0-1,0.4482422-1,1C58.2949219,20.2050781,58.7431641,20.6523438,59.2949219,20.6523438z" />
		</g>
		<g>
			<path d="M59.2958984,32.1035156h5.1894531c0.5527344,0,1-0.4472656,1-1s-0.4472656-1-1-1h-5.1894531c-0.5527344,0-1,0.4472656-1,1    S58.7431641,32.1035156,59.2958984,32.1035156z" />
		</g>
		<g>
			<path d="M91.6806641,32.1025391c0.5527344,0,1-0.4472656,1-1s-0.4472656-1-1-1h-3.7480469c-0.5527344,0-1,0.4472656-1,1    s0.4472656,1,1,1H91.6806641z" />
		</g>
		<g>
			<path d="M105.6152344,32.1015625c0.5527344,0,1-0.4472656,1-1s-0.4472656-1-1-1h-7.4960938c-0.5527344,0-1,0.4472656-1,1    s0.4472656,1,1,1H105.6152344z" />
		</g>
		<g>
			<path d="M130.3124695,30.1005859l-19.0273132,0.0009766c-0.5527344,0-1,0.4482422-1,1c0,0.5527344,0.4482422,1,1,1    l19.0273132-0.0009766c0.5527649,0,1-0.4482422,1-1C131.3124695,30.5478516,130.8642578,30.1005859,130.3124695,30.1005859z" />
		</g>
		<g>
			<path d="M82.1708984,30.1025391H69.4863281c-0.5527344,0-1,0.4472656-1,1s0.4472656,1,1,1h12.6845703c0.5527344,0,1-0.4472656,1-1    S82.7236328,30.1025391,82.1708984,30.1025391z" />
		</g>
		<g>
			<path d="M59.2958984,43.5546875h9.609375c0.5527344,0,1-0.4472656,1-1s-0.4472656-1-1-1h-9.609375c-0.5527344,0-1,0.4472656-1,1    S58.7431641,43.5546875,59.2958984,43.5546875z" />
		</g>
		<g>
			<path d="M77.2802734,43.5537109c0.5527344,0,1-0.4472656,1-1s-0.4472656-1-1-1h-2.8789063c-0.5527344,0-1,0.4472656-1,1    s0.4472656,1,1,1H77.2802734z" />
		</g>
		<g>
			<path d="M130.3124695,41.5517578l-19.0253601,0.0009766c-0.5527344,0-1,0.4482422-1,1c0,0.5527344,0.4482422,1,1,1    l19.0253601-0.0009766c0.5527649,0,1-0.4482422,1-1C131.3124695,41.9990234,130.8642578,41.5517578,130.3124695,41.5517578z" />
		</g>
		<g>
			<path d="M69.7626953,65.4550781c0,13.7734375,11.2333984,24.9794922,25.0419922,24.9794922    s25.0429688-11.2060547,25.0429688-24.9794922s-11.234375-24.9785156-25.0429688-24.9785156    S69.7626953,51.6816406,69.7626953,65.4550781z M94.8046875,42.4765625c12.7060547,0,23.0429688,10.3085938,23.0429688,22.9785156    c0,12.6708984-10.3369141,22.9794922-23.0429688,22.9794922c-12.7050781,0-23.0419922-10.3085938-23.0419922-22.9794922    C71.7626953,52.7851563,82.0996094,42.4765625,94.8046875,42.4765625z" />
		</g>
		<g>
			<path d="M103.2578125,75.4570313c0.1953125,0.1923828,0.4482422,0.2880859,0.7021484,0.2880859    c0.2587891,0,0.5166016-0.0996094,0.7119141-0.2978516l9.1533203-9.2890625c0.3837891-0.3896484,0.3837891-1.0146484,0-1.4042969    l-9.1533203-9.2900391c-0.3867188-0.3916016-1.0195313-0.3974609-1.4140625-0.0097656    c-0.3935547,0.3867188-0.3974609,1.0205078-0.0097656,1.4140625l8.4609375,8.5878906l-8.4609375,8.5869141    C102.8603516,74.4365234,102.8642578,75.0693359,103.2578125,75.4570313z" />
		</g>
		<g>
			<path d="M75.7851563,66.1582031l9.1523209,9.2890625c0.1953354,0.1982422,0.4531479,0.2978516,0.711937,0.2978516    c0.2539063,0,0.5068359-0.0957031,0.7021484-0.2880859c0.3935547-0.3867188,0.3974609-1.0205078,0.0097656-1.4140625    l-8.4609375-8.5869141l8.4609375-8.5878906c0.3876953-0.3935547,0.3837891-1.0273438-0.0097656-1.4140625    c-0.3945313-0.3886719-1.0273438-0.3837891-1.4140854,0.0097656l-9.1523209,9.2900391    C75.4013672,65.1435547,75.4013672,65.7685547,75.7851563,66.1582031z" />
		</g>
		<g>
			<path d="M89.8730469,79.8964844c0.1074219,0.0371094,0.2158203,0.0537109,0.3232422,0.0537109    c0.4160156,0,0.8046875-0.2617188,0.9462891-0.6767578l9.2177734-26.9892578    c0.1787109-0.5224609-0.1005859-1.0908203-0.6230469-1.2695313c-0.5224609-0.1806641-1.0917969,0.1005859-1.2695313,0.6230469    L89.25,78.6269531C89.0712891,79.1494141,89.3505859,79.7177734,89.8730469,79.8964844z" />
		</g>
	</g>
</svg>