<svg xmlns:dc="http://purl.org/dc/elements/1.1/" xmlns:cc="http://creativecommons.org/ns#" xmlns:rdf="http://www.w3.org/1999/02/22-rdf-syntax-ns#" xmlns:svg="http://www.w3.org/2000/svg" xmlns="http://www.w3.org/2000/svg" xmlns:sodipodi="http://sodipodi.sourceforge.net/DTD/sodipodi-0.dtd" xmlns:inkscape="http://www.inkscape.org/namespaces/inkscape" viewBox="0 0 156.97882 405.0283375" version="1.1" x="0px" y="0px">
    <g transform="translate(73.197735,26.266748)">
        <path style="" d="m -34.041825,12.890331 -39.15591,39.15711 2.55618,2.55618 2.55618,2.55619 36.69021,-36.68388 36.6902132,-36.68389 36.6859968,36.68472 36.685997,36.68473 2.557025,-2.55703 2.557021,-2.55702 -39.155918,-39.15711 c -21.535751,-21.5364104 -39.2358248,-39.1571 -39.3334948,-39.1571 -0.09767,0 -17.7977442,17.6206896 -39.3335002,39.1571 z m 0,120.297219 -39.15591,39.15711 2.55618,2.55618 2.55618,2.55618 36.69021,-36.68388 36.6902132,-36.68389 36.6859968,36.68473 36.685997,36.68472 2.557025,-2.55702 2.557021,-2.55702 L 44.62517,133.18755 C 23.089419,111.65114 5.3893452,94.030441 5.2916752,94.030441 c -0.09767,0 -17.7977442,17.620699 -39.3335002,39.157109 z m 0,120.29721 -39.15591,39.15711 2.55618,2.55618 2.55618,2.55619 36.69021,-36.68389 36.6902132,-36.68388 36.6859968,36.68472 36.685997,36.68473 2.557025,-2.55703 2.557021,-2.55702 L 44.62517,253.48476 C 23.089419,231.94835 5.3893452,214.32766 5.2916752,214.32766 c -0.09767,0 -17.7977442,17.62069 -39.3335002,39.1571 z" fill="#000000" stroke-width="0.35277775" />
    </g>
</svg>