<?xml version="1.0" encoding="iso-8859-1"?>
<!-- Generator: Adobe Illustrator 19.0.0, SVG Export Plug-In . SVG Version: 6.00 Build 0)  -->
<svg version="1.1" id="Layer_1" xmlns="http://www.w3.org/2000/svg" xmlns:xlink="http://www.w3.org/1999/xlink" x="0px" y="0px"
	 viewBox="0 0 318.959 318.959" style="enable-background:new 0 0 318.959 318.959;" xml:space="preserve">
<g>
	<g>
		<path style="fill:#6D6D6D;" d="M303.671,253.512c-11.151-37.754-67.121-33.566-91.279-44.408
			c-24.157-10.842-20.386-47.219-23.449-53.548H130.01c-3.058,6.329,0.714,42.711-23.449,53.548
			c-24.157,10.842-80.133,6.655-91.279,44.408c-6.149,20.824-5.857,27.193-7.554,50.26c0,0,76.8,15.187,150.014,15.187
			s153.488-15.187,153.488-15.187C309.527,280.699,309.82,274.337,303.671,253.512z"/>
		<path style="fill:#606060;" d="M303.671,253.512c-11.151-37.754-67.121-33.566-91.279-44.408
			c-24.157-10.842-20.386-47.219-23.449-53.548h-31.206c0,0-0.719,51.024,23.438,61.866s80.133,6.655,91.279,44.408
			c5.857,19.83,5.868,26.552,7.324,47.073c19.234-2.816,31.442-5.126,31.442-5.126C309.527,280.699,309.82,274.337,303.671,253.512z
			"/>
		<path style="fill:#606060;" d="M303.671,253.512c-10.955-37.102-65.205-33.696-90.003-43.858l0,0c0,0-3.254,5.947-8.723,14.141
			c26.316,5.104,59.241,10.033,67.509,38.029c5.857,19.83,5.868,26.552,7.324,47.073c19.234-2.816,31.442-5.126,31.442-5.126
			C309.527,280.699,309.82,274.337,303.671,253.512z"/>
		<path style="fill:#EAE5DC;" d="M213.674,209.649c-0.433-0.18-0.86-0.36-1.276-0.545c-24.157-10.842-20.386-47.219-23.449-53.548
			H130.01c-3.058,6.329,0.714,42.711-23.449,53.548c-0.416,0.185-0.843,0.371-1.276,0.545c0,0,7.29,13.332,18.408,27.608
			c12.804,16.44,30.003,34.134,35.786,34.134c5.778,0,22.977-17.688,35.786-34.134C206.379,222.981,213.674,209.649,213.674,209.649
			z"/>
		<path style="fill:#E0DBD3;" d="M213.674,209.649c-0.208-0.084-0.416-0.174-0.624-0.259c-0.011-0.006-0.017-0.006-0.028-0.011
			c-0.214-0.09-0.422-0.18-0.63-0.275c-4.345-1.95-7.779-4.727-10.516-8.004l0,0c-2.074,4.867-6.734,11.927-12.247,19.267
			c4.631,1.293,9.83,2.361,15.322,3.429C210.42,215.596,213.674,209.649,213.674,209.649L213.674,209.649z"/>
		<path style="fill:#DBB491;" d="M201.877,201.1c-12.5-14.951-10.421-40.356-12.927-45.549H130.01
			c-2.512,5.193-0.427,30.599-12.927,45.549c5.963,14.029,37.99,51.575,42.396,51.575C163.881,252.675,195.419,216.27,201.877,201.1
			z"/>
		<path style="fill:#CCA483;" d="M181.182,217.417c2.501,1.124,5.345,2.085,8.448,2.951c5.514-7.341,10.173-14.4,12.247-19.267l0,0
			c-10.584-12.658-10.713-32.813-12.028-41.845c-0.006-0.034-0.011-0.062-0.011-0.09c-0.022-0.157-0.045-0.309-0.067-0.455
			c-0.006-0.051-0.017-0.096-0.022-0.146c-0.022-0.135-0.045-0.264-0.067-0.388c-0.006-0.045-0.017-0.096-0.022-0.141
			c-0.028-0.141-0.051-0.275-0.079-0.41c-0.006-0.022-0.011-0.051-0.017-0.079c-0.034-0.157-0.067-0.304-0.101-0.45
			c-0.006-0.034-0.017-0.062-0.022-0.096c-0.028-0.107-0.051-0.214-0.079-0.315c-0.011-0.045-0.022-0.09-0.039-0.129
			c-0.022-0.084-0.051-0.169-0.073-0.247c-0.011-0.045-0.028-0.084-0.039-0.129c-0.028-0.079-0.056-0.157-0.084-0.23
			c-0.011-0.034-0.028-0.067-0.039-0.101c-0.039-0.101-0.084-0.202-0.129-0.292h-31.206
			C157.743,155.556,157.023,206.58,181.182,217.417z"/>
		<path style="fill:#C69E7F;" d="M122.081,193.152c9.78,7.959,21.24,15.85,37.338,18.132c16.137-2.288,27.569-10.342,37.36-18.334
			c-8.144-14.973-5.626-32.83-7.83-37.4H130.01C127.797,160.126,130.264,178.173,122.081,193.152z"/>
		
			<ellipse transform="matrix(-0.177 0.9842 -0.9842 -0.177 385.6469 -85.3759)" style="fill:#CCA483;" cx="228.519" cy="118.551" rx="21.386" ry="11.629"/>
		
			<ellipse transform="matrix(-0.9842 0.177 -0.177 -0.9842 200.0847 219.268)" style="fill:#DBB491;" cx="90.262" cy="118.558" rx="11.629" ry="21.386"/>
		<path style="fill:#DBB491;" d="M223.64,47.359h-64.221H95.231c0,0-35.989,146.614,64.187,160.806
			C259.633,193.973,223.64,47.359,223.64,47.359z"/>
		<path style="fill:#CCA483;" d="M159.418,208.165c100.216-14.192,64.221-160.806,64.221-160.806h-15.024
			c4.114,61.242,9.808,93.774-13.815,129.24C176.083,204.703,159.418,208.165,159.418,208.165z"/>
		<path style="fill:#CCA483;" d="M231.227,61.726H85.03v24.652c0,0,25.506,6.216,72.714,6.216s73.49-6.216,73.49-6.216V61.726
			H231.227z"/>
		<path style="fill:#4C3626;" d="M235.786,48.725C230.064,25.956,201.191,0,159.48,0S88.897,25.956,83.169,48.725
			c0,0-10.932,47.483,7.683,67.931c0,0-0.916-18.548,0.956-33.313c0,0,23.129,4.952,67.667,4.952s67.667-4.952,67.667-4.952
			c1.872,14.765,0.955,33.313,0.955,33.313C246.717,96.208,235.786,48.725,235.786,48.725z"/>
		<path style="fill:#3B3B3B;" d="M232.824,102.121c-27.496-9.634-65.115,0.742-65.115,0.742c-3.586,0.882-5.986,1.051-7.228,1.062
			c-0.006,0-1,0-1,0h-1c-1.242-0.011-3.642-0.18-7.234-1.062c0,0-37.619-10.37-65.115-0.742c0,0-0.821,3.867,0,9.139
			c0,0,0.067,0.798,0.956,1.135c0,0,3.001,0.944,3.777,4.002c0,0,1.72,6.891,2.276,10.055c0,0,0.933,6.098,4.277,9.504
			c0,0,2.917,3.732,10.393,5.39c0,0,9.724,2.501,21.836,1.057c0,0,8.65-1.062,13.096-5.238c0,0,4.907-4.204,7.627-12.337
			c0,0,0.849-2.501,2.67-7.931c0,0,0.877-3.704,6.43-3.946c5.559,0.242,6.43,3.946,6.43,3.946c1.821,5.43,2.67,7.931,2.67,7.931
			c2.72,8.139,7.627,12.337,7.627,12.337c4.446,4.176,13.096,5.238,13.096,5.238c12.112,1.445,21.836-1.057,21.836-1.057
			c7.47-1.658,10.393-5.39,10.393-5.39c3.35-3.406,4.277-9.504,4.277-9.504c0.556-3.17,2.276-10.055,2.276-10.055
			c0.776-3.058,3.777-4.002,3.777-4.002c0.888-0.332,0.956-1.135,0.956-1.135C233.644,105.988,232.824,102.121,232.824,102.121z
			 M148.374,117.061c0,0-3.209,14.507-8.6,18.458c0,0-5.216,4.3-15.423,4.474c0,0-15.204,0.663-22.016-4.412
			c0,0-4.485-3.181-5.93-13.293c0,0-1.928-11.815,0.556-15.187c0,0,3.372-5.626,13.574-5.452c0,0,8.689-0.174,15.766,0.528
			c0,0,8.774,0.674,16.57,3.198C142.866,105.364,151.353,107.713,148.374,117.061z M222.549,122.282
			c-1.444,10.111-5.93,13.293-5.93,13.293c-6.812,5.081-22.016,4.412-22.016,4.412c-10.207-0.174-15.423-4.474-15.423-4.474
			c-5.39-3.957-8.6-18.458-8.6-18.458c-2.979-9.347,5.503-11.696,5.503-11.696c7.796-2.524,16.57-3.198,16.57-3.198
			c7.076-0.703,15.766-0.528,15.766-0.528c10.207-0.174,13.574,5.452,13.574,5.452C224.477,110.462,222.549,122.282,222.549,122.282
			z"/>
	</g>
</g>
<g>
</g>
<g>
</g>
<g>
</g>
<g>
</g>
<g>
</g>
<g>
</g>
<g>
</g>
<g>
</g>
<g>
</g>
<g>
</g>
<g>
</g>
<g>
</g>
<g>
</g>
<g>
</g>
<g>
</g>
</svg>
