<svg xmlns="http://www.w3.org/2000/svg" xmlns:xlink="http://www.w3.org/1999/xlink" version="1.1" x="0px" y="0px" viewBox="0 0 16 20" style="enable-background:new 0 0 16 16;" xml:space="preserve">
    <path d="M3.95,6.45h2v3.11c0,1.848,1.257,3.428,3.058,3.844l2.986,0.689c0.019,0.004,0.038,0.006,0.056,0.006  c0.097,0,0.187-0.056,0.228-0.147c0.049-0.108,0.014-0.237-0.083-0.306l-1.603-1.145C9.689,11.857,9.15,10.809,9.15,9.699V6.45h2  c0.099,0,0.188-0.058,0.228-0.147s0.024-0.195-0.041-0.269l-3.6-4.05c-0.095-0.106-0.279-0.106-0.374,0l-3.6,4.05  C3.698,6.108,3.682,6.213,3.722,6.303S3.852,6.45,3.95,6.45z M7.55,2.526l3.043,3.424H8.9c-0.138,0-0.25,0.112-0.25,0.25v3.499  c0,1.271,0.618,2.471,1.652,3.21l0.583,0.416L9.12,12.917c-1.572-0.363-2.67-1.744-2.67-3.357V6.2c0-0.138-0.112-0.25-0.25-0.25  H4.507L7.55,2.526z" />
</svg>