<svg xmlns="http://www.w3.org/2000/svg" xmlns:xlink="http://www.w3.org/1999/xlink" xml:space="preserve" version="1.0" style="shape-rendering:geometricPrecision;text-rendering:geometricPrecision;image-rendering:optimizeQuality;" viewBox="0 0 10000 12500" x="0px" y="0px" fill-rule="evenodd" clip-rule="evenodd">
  <defs>
    <style type="text/css">
   
    .fil0 {fill:black;fill-rule:nonzero}
   
  </style>
  </defs>
  <g>
    <path class="fil0" d="M7147 5959c74,81 68,207 -13,282 -81,74 -207,68 -281,-13l-1853 -2027 -1853 2027c-74,81 -200,87 -281,13 -81,-75 -87,-201 -13,-282l1998 -2185 15 -15c81,-74 207,-68 281,13l2000 2187z" />
    <path class="fil0" d="M5000 1684c-916,0 -1745,372 -2345,971 -599,600 -971,1429 -971,2345 0,916 372,1745 971,2345 600,599 1429,971 2345,971 916,0 1745,-372 2345,-971 599,-600 971,-1429 971,-2345 0,-916 -372,-1745 -971,-2345 -600,-599 -1429,-971 -2345,-971zm-2627 689c672,-673 1601,-1089 2627,-1089 1026,0 1955,416 2627,1089 673,672 1089,1601 1089,2627 0,1026 -416,1955 -1089,2627 -672,673 -1601,1089 -2627,1089 -1026,0 -1955,-416 -2627,-1089 -673,-672 -1089,-1601 -1089,-2627 0,-1026 416,-1955 1089,-2627z" />
  </g>
</svg>