<svg xmlns="http://www.w3.org/2000/svg" xmlns:xlink="http://www.w3.org/1999/xlink" version="1.1" x="0px" y="0px" viewBox="0 0 100 100" enable-background="new 0 0 100 100" xml:space="preserve">
    <path d="M79,13v-2h-2V9H25v76h2v2h2v2h52V13H79z M26,84V10h50v74H26z M28,86v-1h49V12h1v74H28z M80,88H30v-1  h49V14h1V88z" />
    <path d="M72,39c0,0.55-0.45,1-1,1H31c-0.55,0-1-0.45-1-1l0,0c0-0.55,0.45-1,1-1h40C71.55,38,72,38.45,72,39L72,39z" />
    <path d="M72,44c0,0.55-0.45,1-1,1H31c-0.55,0-1-0.45-1-1l0,0c0-0.55,0.45-1,1-1h40C71.55,43,72,43.45,72,44L72,44z" />
    <path d="M72,49c0,0.55-0.45,1-1,1H31c-0.55,0-1-0.45-1-1l0,0c0-0.55,0.45-1,1-1h40C71.55,48,72,48.45,72,49L72,49z" />
    <path d="M72,54c0,0.55-0.45,1-1,1H31c-0.55,0-1-0.45-1-1l0,0c0-0.55,0.45-1,1-1h40C71.55,53,72,53.45,72,54L72,54z" />
    <path d="M72,59c0,0.55-0.45,1-1,1H31c-0.55,0-1-0.45-1-1l0,0c0-0.55,0.45-1,1-1h40C71.55,58,72,58.45,72,59L72,59z" />
    <path d="M72,64c0,0.55-0.45,1-1,1H31c-0.55,0-1-0.45-1-1l0,0c0-0.55,0.45-1,1-1h40C71.55,63,72,63.45,72,64L72,64z" />
    <path d="M72,69c0,0.55-0.45,1-1,1H31c-0.55,0-1-0.45-1-1l0,0c0-0.55,0.45-1,1-1h40C71.55,68,72,68.45,72,69L72,69z" />
    <path d="M51,74c0,0.55-0.45,1-1,1H31c-0.55,0-1-0.45-1-1l0,0c0-0.55,0.45-1,1-1h19C50.55,73,51,73.45,51,74L51,74z" />
    <path d="M51,28c0,0.55-0.45,1-1,1H31c-0.55,0-1-0.45-1-1l0,0c0-0.55,0.45-1,1-1h19C50.55,27,51,27.45,51,28L51,28z" />
    <path d="M45,33c0,0.55-0.45,1-1,1H31c-0.55,0-1-0.45-1-1l0,0c0-0.55,0.45-1,1-1h13C44.55,32,45,32.45,45,33L45,33z" />
    <circle cx="65" cy="20" r="4" />
    <path d="M71,29.5c0,5.5,0,5.5-6,5.5s-6,0-6-5.5c0-3.038,0-5,6-5S71,26.462,71,29.5z" />
</svg>